<?xml version="1.0" encoding="UTF-8"?>
<svg width="2048px" height="2048px" viewBox="0 0 2048 2048" version="1.1" xmlns="http://www.w3.org/2000/svg" xmlns:xlink="http://www.w3.org/1999/xlink">
    <!-- Generator: Sketch 56 (81588) - https://sketch.com -->
    <title>logo</title>
    <desc>Created with Sketch.</desc>
    <g id="logo" stroke="none" stroke-width="1" fill="none" fill-rule="evenodd">
        <g id="Group-2" transform="translate(310.000000, 257.000000)">
            <polygon id="Path-3-Copy" fill="#FFFFFF" points="749.328748 245.543437 10.2988229 245.543437 45.2195296 275.94735 45.2195296 321.132404 11.3252702 337.584121 131.703185 547.224706 133.010928 1223.52465 119.076837 1247.76441 103.398172 1248.92477 103.398172 1277.88913 75.7009525 1295.13198 75.7009525 1336.3354 22.6116103 1349.62096 745.234739 1349.62096"></polygon>
            <polygon id="Path-3-Copy-2" fill="#FFFFFF" transform="translate(1039.707518, 797.582198) scale(-1, 1) translate(-1039.707518, -797.582198) " points="1409.22248 245.543437 670.192556 245.543437 705.078601 276.217725 705.078601 321.132404 671.219003 337.584121 791.596918 547.224706 792.90466 1223.52465 778.97057 1247.76441 761.674858 1251.98302 754.49376 1276.73921 736.164596 1295.17632 736.164596 1336.38064 682.505343 1349.62096 1405.12847 1349.62096"></polygon>
            <g id="Group" transform="translate(100.922527, 548.047914)" fill="#34495F" fill-rule="nonzero">
                <path d="M200.947429,699.863719 L216.923598,699.867383 L216.91651,730.767364 L1.2747237,730.717899 L1.28181177,699.817918 L17.0883065,699.821544 L17.0903474,677.174556 L30.5578583,677.17577 L30.559215,-1.67749137e-07 L61.8512319,54.4898634 L52.9779321,39.1510871 L50.1865098,677.177539 L66.0248643,677.178966 L68.7788091,66.5530913 L187.74829,273.718733 L187.74829,677.189936 L200.949472,677.191126 L200.947429,699.863719 Z M149.156658,677.186458 L165.092121,677.187894 L165.092121,234.27617 L149.156658,206.550972 L149.156658,677.186458 Z M117.694651,677.183623 L116.841751,150.27149 L100.831763,122.379502 L101.229122,677.182139 L117.694651,677.183623 Z" id="Combined-Shape"></path>
                <path d="M402.351726,641.681431 L402.351726,677.195975 L418.287189,677.170779 L418.287189,669.230867 L425.249067,681.266653 L281.790971,681.585095 L281.792234,433.256611 L304.163274,471.931958 L301.374071,677.559885 L317.210708,677.636066 L319.958307,499.238617 L351.962225,554.567406 L352.470216,677.642973 L368.946813,677.628935 L368.118201,582.498067 L402.351726,641.681431 Z" id="Combined-Shape"></path>
                <polygon id="Rectangle" transform="translate(352.354856, 690.573581) rotate(-0.007509) translate(-352.354856, -690.573581) " points="266.415578 677.183695 422.758914 677.183626 438.294146 703.963459 266.415566 703.963535"></polygon>
                <polygon id="Rectangle" transform="translate(352.015176, 715.291220) rotate(0.013143) translate(-352.015176, -715.291220) " points="250.369983 699.841234 435.884634 699.841377 453.66037 730.741206 250.370006 730.741049"></polygon>
            </g>
            <g id="Group-Copy" transform="translate(1101.612443, 913.733706) scale(-1, 1) translate(-1101.612443, -913.733706) translate(874.414987, 548.047914)" fill="#34495F" fill-rule="nonzero">
                <path d="M200.947429,699.863719 L216.923598,699.867383 L216.91651,730.767364 L1.2747237,730.717899 L1.28181177,699.817918 L17.0883065,699.821544 L17.0903474,677.174556 L30.5578583,677.17577 L30.559215,-1.67748626e-07 L61.851232,54.4898635 L52.9779321,39.1510871 L50.1865098,677.177539 L66.0248643,677.178966 L68.7788091,66.5530913 L187.74829,273.718733 L187.74829,677.189936 L200.949472,677.191126 L200.947429,699.863719 Z M149.156658,677.186458 L165.092121,677.187894 L165.092121,234.280257 L149.156658,206.525597 L149.156658,677.186458 Z M117.694651,677.183623 L116.841751,150.27149 L100.831763,122.379502 L101.229122,677.182139 L117.694651,677.183623 Z" id="Combined-Shape"></path>
                <path d="M402.351726,641.681431 L402.351726,677.195975 L418.287189,677.170779 L418.287189,669.230867 L425.249067,681.266653 L281.790971,681.585095 L281.792234,433.256611 L304.163274,471.931958 L301.374071,677.559885 L317.210708,677.636066 L319.958307,499.238617 L351.962225,554.567406 L352.470216,677.642973 L368.946813,677.628935 L368.118201,582.498067 L402.351726,641.681431 Z" id="Combined-Shape"></path>
                <polygon id="Rectangle" transform="translate(352.354856, 690.573581) rotate(-0.007509) translate(-352.354856, -690.573581) " points="266.415578 677.183695 422.758914 677.183626 438.294146 703.963459 266.415566 703.963535"></polygon>
                <polygon id="Rectangle" transform="translate(352.015176, 715.291220) rotate(0.013143) translate(-352.015176, -715.291220) " points="250.369983 699.841234 435.884634 699.841377 453.66037 730.741206 250.370006 730.741049"></polygon>
            </g>
            <polygon id="Rectangle" fill="#34495F" fill-rule="nonzero" transform="translate(210.028590, 389.454155) rotate(0.005163) translate(-210.028590, -389.454155) " points="117.959604 376.082621 302.097575 376.082631 302.097576 402.825689 117.959606 402.825679"></polygon>
            <polygon id="Rectangle" fill="#34495F" fill-rule="nonzero" transform="translate(1209.100129, 389.454155) rotate(179.997184) translate(-1209.100129, -389.454155) " points="1117.06663 376.082629 1301.13363 376.082623 1301.13363 402.825681 1117.06663 402.825687"></polygon>
            <polygon id="Rectangle" fill="#3AB982" fill-rule="nonzero" transform="translate(332.892595, 1316.147885) rotate(0.005163) translate(-332.892595, -1316.147885) " points="75.3930867 1295.59844 566.567688 1295.55418 590.392104 1336.69518 75.3930891 1336.74159"></polygon>
            <polygon id="Rectangle-Copy-5" fill="#3AB982" fill-rule="nonzero" transform="translate(1092.389292, 1316.147920) scale(-1, 1) rotate(0.005163) translate(-1092.389292, -1316.147920) " points="841.498209 1295.59791 1319.36461 1295.55484 1343.28038 1336.69578 841.498211 1336.741"></polygon>
            <polygon id="Rectangle" fill="#34495F" fill-rule="nonzero" transform="translate(710.462082, 300.345112) rotate(0.000470) translate(-710.462082, -300.345112) " points="45.6624878 277.716367 1375.26168 277.716374 1375.26168 322.973857 45.662488 322.97385"></polygon>
            <polyline id="Fill-5" fill="#3AB982" points="10.2988229 246.819827 709.760652 0.476519007 1409.22248 246.819827 10.2988229 246.819827"></polyline>
            <path d="M707.155252,45.6018266 C708.839749,44.9996257 710.681554,44.9996257 712.368236,45.6018266 L1150.11527,203.422561 L269.406033,203.422561 L707.155252,45.6018266 Z" id="Fill-8" fill="#34495F"></path>
            <polygon id="Rectangle" fill="#34495F" points="834.610648 1349.62096 1396.45858 1349.62096 1396.45858 1418.54603 795.278795 1418.54603"></polygon>
            <polygon id="Rectangle-Copy-6" fill="#34495F" points="23.0627249 1349.62096 597.611375 1349.62096 637.00641 1418.54603 23.0627249 1418.54603"></polygon>
            <polygon id="Path-3" fill="#FFFFFF" points="714.30697 1553.84838 1428.36833 322.126849 0.0877013606 322.126849"></polygon>
            <polygon id="Path-2" fill="#3AB982" points="69.0127721 364.247726 326.967396 364.247726 714.294463 1030.23446 1101.62153 364.247726 1359.44326 364.247726 714.294463 1474.7072"></polygon>
            <polygon id="Path" fill="#34495F" points="567.624137 364.247726 716.714342 618.689216 865.477964 364.247726 1104.16522 364.247726 715.819707 1030.52341 329.396373 364.247726"></polygon>
        </g>
    </g>
</svg>